<svg width="237" height="144" viewBox="0 0 237 144" fill="none" xmlns="http://www.w3.org/2000/svg">
<path d="M0 23.5C19.0346 23.5 10.0772 59 26.4992 59C42.9213 59 80.2441 15.5 107.117 15.5C133.989 15.5 118.687 98.5 153.77 98.5C188.854 98.5 196.691 2 237 2" stroke="#000AFF" stroke-width="2.5"/>
<path d="M26.4992 59C10.0772 59 19.0346 23.5 0 23.5V143.5H237V2C196.691 2 188.854 98.5 153.77 98.5C118.687 98.5 133.989 15.5 107.117 15.5C80.2441 15.5 42.9213 59 26.4992 59Z" fill="url(#paint0_linear_104_369)"/>
<g filter="url(#filter0_d_104_369)">
<circle cx="107" cy="16" r="4" fill="white"/>
</g>
<circle cx="107" cy="16" r="2" fill="#2624FF"/>
<defs>
<filter id="filter0_d_104_369" x="101" y="11" width="12" height="12" filterUnits="userSpaceOnUse" color-interpolation-filters="sRGB">
<feFlood flood-opacity="0" result="BackgroundImageFix"/>
<feColorMatrix in="SourceAlpha" type="matrix" values="0 0 0 0 0 0 0 0 0 0 0 0 0 0 0 0 0 0 127 0" result="hardAlpha"/>
<feOffset dy="1"/>
<feGaussianBlur stdDeviation="1"/>
<feComposite in2="hardAlpha" operator="out"/>
<feColorMatrix type="matrix" values="0 0 0 0 0 0 0 0 0 0 0 0 0 0 0 0 0 0 0.18 0"/>
<feBlend mode="normal" in2="BackgroundImageFix" result="effect1_dropShadow_104_369"/>
<feBlend mode="normal" in="SourceGraphic" in2="effect1_dropShadow_104_369" result="shape"/>
</filter>
<linearGradient id="paint0_linear_104_369" x1="118.5" y1="-45" x2="118.5" y2="143.5" gradientUnits="userSpaceOnUse">
<stop stop-color="#000AFF"/>
<stop offset="1" stop-color="white" stop-opacity="0"/>
</linearGradient>
</defs>
</svg>
